# xmcd
#
# Track frame offsets: 
#        150
#        12391
#        24776
#        43296
#        58141
#        80202
#        99236
#        115783
#        135233
#        151438
#        171277
#        191649
#
# Disc length: 2943 seconds
#
# Revision: 2
# Processed by: cddbd v1.5.2PL0 Copyright (c) Steve Scherf et al.
# Submitted via: ExactAudioCopy v0.99pb5
#
DISCID=980b7d0c
DTITLE=Ilene Barnes - Three sides
DYEAR=0
DGENRE=
TTITLE0=One side - House of the rising sun
TTITLE1=Big yellow taxi
TTITLE2=This wheels on fire
TTITLE3=One other side - C'est la vie
TTITLE4=Lilies' song
TTITLE5=Sticks and stones
TTITLE6=One third side (Live) - Do you know what I mean
TTITLE7=Time
TTITLE8=Deep
TTITLE9=Please
TTITLE10=Jennifer
TTITLE11=They say
EXTD=
EXTT0=
EXTT1=
EXTT2=
EXTT3=
EXTT4=
EXTT5=
EXTT6=
EXTT7=
EXTT8=
EXTT9=
EXTT10=
EXTT11=
PLAYORDER=
